<svg xmlns="http://www.w3.org/2000/svg" viewBox="0 0 846.45 1064.99"><defs><style>.cls-1{fill:#1a1a1a;}</style></defs><g id="Layer_2" data-name="Layer 2"><g id="Layer_1-2" data-name="Layer 1"><path class="cls-1" d="M633.14,546.66c-2.07,137.42-137.9,335-223.25,167.89-31.77,69.21-47.15,74.93-102.75,23.75-34.62-27.32-133.57,27.48-92.9,65.6,22,5,49-23.35,62.19,10.4,4,38.74-19.64,145-74.78,119.54C104,847.53,8.14,763.25,3.28,620.83-19,439.79,74,324.41,221.38,236.29c35.53-32.4,67.27-70.48,88.61-114C324,106.15,325.4,37.48,342.84,76.2c10,20.15,31.25,83-6.56,77.74-33,2.1-48.33,37-49,65.93-36.3,4.06-66.91,33.29-62.5,72.21C134.9,324.24,70,408.73,52.9,502.47,25.25,617.11,57.35,751.21,166.34,813.31c14.84-57.15,36.09-123.31,81.23-167.17C387.69,532.71,415.26,828.52,411.65,457.56c-6.83-64.18,12.83-129.46,33.68-188.91,17.95,111.1-42.48,303.3,36.42,383.45,40.78,29.14,149.45-15,95.7-64.4-16.33,2.8-35.25,19.51-51.6,4.2C484.18,488.67,615.27,368,633.14,546.66Z"/><path class="cls-1" d="M172.27,789.45c-.2.65-.39,1.32-.55,2A10.59,10.59,0,0,1,172.27,789.45Z"/><path class="cls-1" d="M444.27,963.8c3.41,4.57,9.37,6.25,13,10.72a59.08,59.08,0,0,1,14.18,23.89c3.15,6.8,3.71,14.4.32,21.2-7,14.6-18.52,26.5-30.06,37.61a60.67,60.67,0,0,1-10.23,7.77c-12.64-8.88-23.38-20.73-35.93-30-1.9-1.32-2.93-3.68-5.3-4.5-.64-.23-.46-.9-.48-1.44a5,5,0,0,1,1.62-4,18.69,18.69,0,0,0,4.18-6.27c5.7-7.78,11.06-16.14,16.27-24.42,2.11-3.5,5.06-6.45,6.54-10.32.32-.84,1.05-1.25,1.58-1.87,1.19-1.37,1.29-2.35-.19-2.85-2.31-.78-3.58-2.81-5.4-4.11-5.86-3.14-8.3-9.4-13.78-12-3.16-1.31-5-4.28-7.83-6a12.28,12.28,0,0,1-2.69-2.65c-.8-.93-2.58-1.35-2.68-2.14-.23-1.82-1.89-1.25-2.69-2.18-4.69-5.42-11-9-15.9-14.34-.64-.69-2-.73-2-2.06-2-.31-1.52-1-.65-2.37,2.81-4.28,5.32-8.76,8.15-13C392,892.6,408.65,866.21,426,840.13c1.52-2.34,1.52-2,5.23,0,5.89,3.38,12.2,6.4,17.4,10.77.84.76,2.39.46,2.72,2.11.22,1.08,1.83,1.27,2.67,2.15,4.21,4.41,9.08,8.3,12.37,13.44,5.75,7.58,8.76,16.75,12.3,25.6a47.31,47.31,0,0,1,2.78,10.33c.88,7.2-3,14.14-6,20.44C467.12,939.39,456.1,952.12,444.27,963.8Z"/><path class="cls-1" d="M846.12,591.92c-2.74,67.24-18.19,135.66-55,193.62-36.55,54.18-151.08,183.32-188,109.11a34.61,34.61,0,0,1,16.58-46.81c122.73-56.15,209.63-167.57,180-318.19a315,315,0,0,0-45.83-131.32l-.46.35c-25.69-39.64-60.94-72.75-103-94.05a239.68,239.68,0,0,0-27.84-12h0a66,66,0,0,0,.41-9,60.53,60.53,0,0,0-5.67-24.33l0-.06c-3.59-9.52-9.18-18.11-18.31-24.16-.88-.3-1.76-.62-2.61-.92A77.43,77.43,0,0,0,559.65,220c-.47-20.22-8.06-43.32-23.76-56.25a43.81,43.81,0,0,0-25.52-10.08c-.49.07-.95.12-1.42.17-36.09,3.57-15.13-58.33-5.2-78.35,5.05-11.22,8.76-13.47,11.84-10.61,1.64,1.55,3.09,4.57,4.49,8.48,2.18,6.2,4.17,14.67,6.38,22.93,0,0,0,0,0,0,2.79,10.41,5.93,20.52,10.32,25.56,21.47,43.75,53.39,82.06,89.13,114.63q14.76,8.84,28.8,18c43.79,28.75,81.87,60.42,112.4,96.16C818.32,404.94,850.08,471.14,846.12,591.92Z"/><path class="cls-1" d="M617.23,259.21a65.69,65.69,0,0,0-20.92-25.08c.85.3,1.73.62,2.61.92C608.05,241.1,613.64,249.69,617.23,259.21Z"/><path class="cls-1" d="M427.65,0c.16.9.82,1.31,1.57,1.69A74.79,74.79,0,0,1,445.8,13.51c5.35,4.86,9,10.9,12.08,17.31,1.1,2.31,1.92,4.85,2.81,7.26s.7,5,2.32,7c.05,3.79-.07,7.49-1.63,11.12-2.55,5.93-6.09,11.26-9.47,16.69-1,1.59-2.78,2.54-3.62,4.4a1.65,1.65,0,0,0,.2,2.09c1.36,1.81,3.55,2.51,5.07,4.12,2.78,3,5.71,5.8,8.61,8.65a51.85,51.85,0,0,1,7.56,10.35,57.3,57.3,0,0,1,3.35,5.77c2.44,5.17,4,10.69,6,16,1.08,2.85,1.35,5.84,2.36,8.69.95,2.66-1.23,5.27-.79,8-1.37.86-.3,2.47-1,3.39-1.7,2.39-2,5.46-3.59,7.76-2.89,4.12-4.66,8.92-8.21,12.65a43.16,43.16,0,0,0-4.66,6.49c-1.31,2.06-3.7,3.26-4.32,5.76-3.95,3.31-6.7,7.72-10.4,11.27s-7.26,7.44-11.07,11c-3.38,3.14-7,6-10.58,9-1.12.95-2.71,1-3.79,2a.89.89,0,0,1-1.39-.37c-.5-1.11-2.28-.86-2.39-1.86-.17-1.62-1.63-1.17-2.35-1.89-4-4-8.65-7.09-12.73-11-3.33-3.16-7-6.09-10.56-9-4.73-3.77-9.14-7.85-13.62-11.88-4.16-3.75-8.69-7.09-12.62-11.1a3,3,0,0,0-1.74-.92c-.47-.08-.5-.81-.32-1.07.78-1.08,1-2.56,1.79-3.44,3.68-4.26,6.32-9.21,9.31-13.89,2.76-4.31,6.42-8.07,8.24-13,3.18-2.64,4.2-6.83,7.05-9.73a15.72,15.72,0,0,0,2.57-4.4c1.54-3.29,4.19-5.75,5.87-8.91s3.95-5.66,5.85-8.54a51.23,51.23,0,0,0,2.38-4.55,126.24,126.24,0,0,0-12.7-11.08c-2.14-1.69-4.17-3.58-6.11-5.44-3.79-3.64-8.29-6.5-11.53-10.56,3.43-6.11,7.94-11.53,11.49-17.57,3-5.1,6.5-9.87,9.55-15,1.88-3.15,4.14-6.15,6.29-9.19,4.87-6.9,9.21-14.14,13.82-21.22,1-1.54,2.51-2.81,2.51-4.86Z"/><path class="cls-1" d="M164.87,779.25l-.47,1.87a5.86,5.86,0,0,1-9.13,3.32c-118.87-87.58-112-237.19-68-341.53,27.39-65,74.7-110.58,142.89-133,2-.63,1.37-9.05,1.86-13.85,3.09-29.46,18.08-46.91,47.23-51.59,9.9-1.6,14.53-4.27,13.45-14.31l1.25,0c1.65,10.91-2.37,14.7-14,16.35-22.49,3.19-38.56,16.05-43.36,39.59-3.38,16.58.72,31,15.06,41.14,20.75,14.63,50.55,2.51,54.31-22.4.78-5.27,7.68-17.43-9.18-12.69-8.16,2.3-11.69-7.64-17.45-11.87s-11.88-6.24-17.57.3c-4.19,4.8-5,10-.15,14.74,1.27,1.25,3.91,1.38,5.92,1.33.47,0,.85-2.92,1.25-4.5.13-.47.21-.93.32-1.4.7.3,1.9.53,2,.93.24,1.55.74,3.56,0,4.68-2.28,3.53-5.77,4.27-9.26,1.94-5.39-3.63-7.49-9.05-4.31-14.8,7.27-13.22,18.95-13.5,31.17-8.57C306.24,282,315,294,307,313.47c-6.45,15.67-18.59,24.32-35.36,25s-29.15-7.15-36.55-22.27c-1.4-2.86-2.79-2.69-5.16-1.84C144.82,344.81,97.74,408.45,78.28,493.5c-17.57,76.84-17.83,152.79,28.17,222.1,15.07,22.71,34.38,41.41,56.19,57.51A5.89,5.89,0,0,1,164.87,779.25Z"/><path class="cls-1" d="M678.55,779.58l.2.82a6.35,6.35,0,0,0,9.91,3.6C806.9,696.36,800,547.08,756.08,442.91c-27.39-65-74.7-110.58-142.89-133-2-.63-1.37-9.05-1.86-13.85-3.09-29.46-18.08-46.91-47.23-51.59-9.9-1.6-14.53-4.27-13.45-14.31l-1.25,0c-1.65,10.91,2.37,14.7,14,16.35,22.49,3.19,38.56,16.05,43.36,39.59,3.38,16.58-.72,31-15.06,41.14-20.75,14.63-50.55,2.51-54.31-22.4-.78-5.27-7.68-17.43,9.18-12.69,8.16,2.3,11.69-7.64,17.45-11.87s11.88-6.24,17.57.3c4.19,4.8,5,10,.15,14.74-1.27,1.25-3.91,1.38-5.92,1.33-.47,0-.85-2.92-1.25-4.5-.13-.47-.21-.93-.32-1.4-.7.3-1.9.53-2,.93-.24,1.55-.74,3.56,0,4.68,2.28,3.53,5.77,4.27,9.26,1.94,5.39-3.63,7.49-9.05,4.31-14.8-7.27-13.22-19-13.5-31.17-8.57-17.6,7.11-26.4,19.1-18.38,38.54,6.45,15.67,18.59,24.32,35.36,25s29.15-7.15,36.55-22.27c1.4-2.86,2.79-2.69,5.16-1.84,85.13,30.41,132.21,94.05,151.67,179.1,17.57,76.84,17.83,152.79-28.17,222.1-15,22.62-34.22,41.25-55.92,57.31A6.36,6.36,0,0,0,678.55,779.58Z"/></g></g></svg>